:SAMPLES-PER-SECOND 30
:FULLY-SPECIFIED
:DEGREES
17
root  67.4761 40.4892 -30.0462 177.488 -83.0394 -177.337
RightUpLeg  -0.902606 -7.34047 -5.43787
RightLeg  4.95573 -4.84831 2.20114
RightFoot  -3.46765 -0.160788 1.99179
RightToes  1.16414e-010 0 -3.6325e-017
Spine  0.0526294 1.13443 2.65248
Spine1  7.2539 1.54311 -1.98405
HEad  -8.90544 1.41819 -0.585386
LeftShoulder1  1.41799 -2.02267 -18.974
LeftArm  -23.5867 13.0667 -7.38608
LeftForeArm  20.0007 -15.5295 -1.84106
LeftHand  -0.244104 0.0205437 5.32207
RightShoulder  1.42113 2.76426 15.9289
RightArm  -24.0262 -2.46353 5.76539
RightForeArm  -6.30016 9.34556 3.84411
RightHand  -1.68589 4.6982 -19.5054
LeftUpLeg  1.74382 6.57206 3.63842
LeftLeg  1.67735 18.1555 -4.85753
LeftFoot  -3.38941 0.0436207 -0.339258
LeftToes  2.00086e-010 -2.05915e-011 4.26721e-011
18
root  67.4584 40.4643 -30.1455 177.834 -82.8469 -177.799
RightUpLeg  -1.16201 -7.27451 -5.20384
RightLeg  5.81341 -4.68829 1.84612
RightFoot  -4.2999 -0.159685 2.11754
RightToes  1.16414e-010 0 -3.6325e-017
Spine  0.421295 1.17101 2.69715
Spine1  7.47979 1.55762 -1.88729
HEad  -8.25404 1.45957 -1.05305
LeftShoulder1  1.95098 -3.1989 -22.6825
LeftArm  -26.0993 14.7398 -8.83936
LeftForeArm  21.8133 -20.0282 -2.87684
LeftHand  -0.244104 0.0205437 5.32207
RightShoulder  1.91286 4.05548 18.8139
RightArm  -20.9284 -4.64254 7.56239
RightForeArm  -11.5559 13.319 5.10117
RightHand  -1.73337 4.32208 -20.7907
LeftUpLeg  1.82598 6.78205 3.85362
LeftLeg  2.02943 18.0005 -4.85494
LeftFoot  -3.72049 0.0679692 -0.689416
LeftToes  2.00086e-010 -2.05915e-011 4.26721e-011
19
root  67.4311 40.4444 -30.2788 178.232 -82.5733 -178.212
RightUpLeg  -1.48959 -7.20421 -4.90622
RightLeg  6.62905 -4.52082 1.51494
RightFoot  -5.19391 -0.150848 2.15053
RightToes  1.16414e-010 0 -3.6325e-017
Spine  0.80781 1.30379 2.98406
Spine1  7.6143 1.75436 -2.10905
HEad  -7.47283 1.41326 -1.54504
LeftShoulder1  2.71419 -4.65982 -27.0315
LeftArm  -27.54 15.7979 -10.128
LeftForeArm  22.7521 -23.3493 -3.7935
LeftHand  -0.244104 0.0205437 5.32207
RightShoulder  2.43448 5.04999 22.2008
RightArm  -17.6007 -6.81714 9.74082
RightForeArm  -10.6971 16.6785 5.35169
RightHand  -1.53122 3.79153 -19.403
LeftUpLeg  1.85169 6.98673 4.10851
LeftLeg  2.3183 17.911 -4.8598
LeftFoot  -3.95468 0.0998924 -1.16786
LeftToes  2.00086e-010 -2.05915e-011 4.26721e-011
20
root  67.3817 40.4298 -30.4479 179.395 -82.4955 -179.308
RightUpLeg  -1.80573 -7.25846 -4.71017
RightLeg  7.39926 -4.47599 1.24962
RightFoot  -6.16162 -0.144129 2.26236
RightToes  1.16414e-010 0 -3.6325e-017
Spine  0.662895 1.32538 3.24413
Spine1  8.2769 1.83833 -2.32164
HEad  -6.77597 1.47149 -2.21119
LeftShoulder1  3.68029 -6.19427 -31.8517
LeftArm  -27.3193 15.9574 -11.4067
LeftForeArm  23.1516 -24.803 -4.0891
LeftHand  -0.244104 0.0205437 5.32207
RightShoulder  3.03825 6.0352 25.752
RightArm  -15.3741 -8.5957 12.2926
RightForeArm  -2.24345 18.2701 4.90752
RightHand  -1.11399 3.3441 -14.959
LeftUpLeg  1.84218 7.0694 4.24758
LeftLeg  2.45824 17.9119 -4.83219
LeftFoot  -3.97513 0.121159 -1.50016
LeftToes  2.00086e-010 -2.05915e-011 4.26721e-011
21
root  67.2985 40.412 -30.6558 -179.063 -82.7704 179.224
RightUpLeg  -1.94802 -7.47695 -4.60976
RightLeg  8.04868 -4.57502 1.10733
RightFoot  -7.10103 -0.140015 2.47944
RightToes  1.16414e-010 0 -3.6325e-017
Spine  -0.0965713 1.14814 3.52699
Spine1  9.6268 1.72852 -2.58105
HEad  -6.21991 1.7572 -2.8034
LeftShoulder1  4.71271 -7.60589 -36.3016
LeftArm  -26.3712 15.2997 -13.3426
LeftForeArm  23.0799 -24.0778 -3.93227
LeftHand  -0.244104 0.0205437 5.32207
RightShoulder  3.81969 7.20144 29.7024
RightArm  -12.6695 -9.78316 15.1246
RightForeArm  1.53753 18.7231 4.79746
RightHand  -0.765122 2.19854 -11.9339
LeftUpLeg  1.82008 7.05791 4.34374
LeftLeg  2.62437 17.6762 -4.71537
LeftFoot  -4.12341 0.133885 -1.7293
LeftToes  2.00086e-010 -2.05915e-011 4.26721e-011
22
root  67.1725 40.3846 -30.8975 -177.802 -83.1982 178.007
RightUpLeg  -1.89845 -7.78742 -4.47985
RightLeg  8.59389 -4.6951 1.07104
RightFoot  -7.96548 -0.13044 2.58662
RightToes  1.16414e-010 0 -3.6325e-017
Spine  -0.916162 0.885296 3.84155
Spine1  11.0107 1.52062 -2.8047
HEad  -5.73769 2.18903 -3.1831
LeftShoulder1  5.64391 -8.72184 -39.9055
LeftArm  -24.6082 14.2786 -16.2034
LeftForeArm  21.4859 -21.7393 -3.49849
LeftHand  -0.244104 0.0205437 5.32207
RightShoulder  4.66805 8.24897 33.7813
RightArm  -9.69882 -10.5419 18.5231
RightForeArm  -4.0368 18.364 5.31145
RightHand  -0.526894 -0.247586 -11.9715
LeftUpLeg  1.83031 7.0742 4.56392
LeftLeg  2.94896 17.0778 -4.54478
LeftFoot  -4.59035 0.165863 -2.34936
LeftToes  2.00086e-010 -2.05915e-011 4.26721e-011
